<?xml version="1.0" encoding="utf-8"?>
<!DOCTYPE svg PUBLIC "-//W3C//DTD SVG 1.0//EN" "http://www.w3.org/TR/2001/REC-SVG-20010904/DTD/svg10.dtd">
<svg version="1.0" xmlns="http://www.w3.org/2000/svg" width="400px" height="400px" viewBox="0 0 400 400" preserveAspectRatio="xMidYMid meet">
 <g fill="#fbbf3d" fill-rule="evenodd">
  <path d="M81.50 399 L83.25 399.50L85 400L85 400 L84.35 400C84 400 83.20 399.80 82.60 399.50 L81.50 399"/>
  <path d="M33 374.50 L32.75 374.50C32.60 374.50 32.50 374.35 32.50 374.25 L32.50 374L32.50 374 L32.25 374C32.10 374 32 373.85 32 373.75 L32 373.50L32 373.50 L31.75 373.50C31.60 373.50 31.50 373.35 31.50 373.25 L31.50 373L31.50 373 L31.25 373C31.10 373 31 372.85 31 372.75 L31 372.50L31 372.50 L30.75 372.50C30.60 372.50 30.50 372.35 30.50 372.25 L30.50 372L30.50 372 L30.25 372C30.10 372 30 371.85 30 371.75 L30 371.50L30 371.50 L29.75 371.50C29.60 371.50 29.50 371.35 29.50 371.25 L29.50 371L29.50 371 L29.25 371C29.10 371 29 370.85 29 370.75 L29 370.50L29 370.50 L28.75 370.50C28.60 370.50 28.50 370.35 28.50 370.25 L28.50 370L28.50 370 L28.25 370C28.10 370 28 369.85 28 369.75 L28 369.50L28 369.50 L27.75 369.50C27.60 369.50 27.50 369.35 27.50 369.25 L27.50 369L27.55 368.90 27.25 368.75 L27 368.50 L29.35 370.75C30.65 372 31.90 373.15 32.10 373.30 C32.30 373.40 32.50 373.60 32.50 373.65 C32.50 373.70 32.70 374.05 33 374.40 L33.50 375L33.25 374.75 33.15 374.40 "/>
  <path d="M374.25 369.25 L373.90 369.40 L374 369.50 L374 369.75C374 369.85 373.85 370 373.75 370 L373.50 370L373.50 370 L373.50 370.25C373.50 370.35 373.35 370.50 373.25 370.50 L373 370.50L373 370.50 L373 370.75C373 370.85 372.85 371 372.75 371 L372.50 371L372.50 371 L372.50 371.25C372.50 371.35 372.35 371.50 372.25 371.50 L372 371.50L372 371.50 L372 371.75C372 371.85 371.85 372 371.75 372 L371.50 372L371.50 372 L371.50 372.25C371.50 372.35 371.35 372.50 371.25 372.50 L371 372.50L371 372.50 L371 372.75C371 372.85 370.85 373 370.75 373 L370.50 373L370.50 373 L370.50 373.25C370.50 373.35 370.35 373.50 370.25 373.50 L370 373.50L370 373.50 L370 373.75C370 373.85 369.85 374 369.75 374 L369.50 374L369.40 373.90 369.25 374.25 L369 374.50 L369.25 374C369.40 373.70 369.60 373.50 369.65 373.50 C369.70 373.50 370.80 372.45 372.10 371.25 L374.50 369"/>
  <path d="M108.50 275 C106.65 273.15 106.45 271.65 105.70 250.20 C105.35 241.85 105.40 241 106.35 238.90 C108.35 234.40 112.90 230.80 120.90 227.50 C126.05 225.40 143.45 219.60 145.90 219.20 C149.35 218.65 150.30 219.45 153.15 225.50 C154.50 228.35 156.50 232.25 157.55 234.10 C159.40 237.30 159.50 237.60 158.95 239.55 C158.20 242.30 154.95 245.70 148.80 250.10 C142.35 254.65 137.30 258.50 126.75 266.95 C117.50 274.30 115.80 275.35 112 275.75 C109.95 275.95 109.30 275.80 108.50 275 "/>
  <path d="M263.60 233 C257.55 231.95 247.25 227.65 247.75 226.35 C247.95 225.85 247.15 225.30 245 224.50 C243.35 223.90 240.55 222.45 238.80 221.30 C235.35 219 229.85 214.40 230.20 214.10 C230.50 213.80 237.30 217.45 243.50 221.25 C247.45 223.60 247.85 223.75 248.35 222.95 C248.75 222.30 248.75 222.10 248.30 222.15 C247.30 222.25 241.10 218.95 239 217.10 C237.85 216.15 236.65 215.50 236.20 215.65 C234.80 216.20 226.90 210.95 222.75 206.65 C218.90 202.75 215.95 198.80 217.55 199.75 C219.80 201.05 228.90 208.55 231.80 211.50 C233.70 213.40 235.45 214.95 235.70 214.95 C235.95 214.95 235.45 214.25 234.55 213.35 C233.70 212.40 232.95 211.45 232.95 211.20 C232.95 210.95 231.55 209.50 229.85 208 C226.55 205.10 222.70 200.60 223.15 200.10 C223.50 199.80 228.15 203.80 231.45 207.20 C232.70 208.45 233.90 209.50 234.15 209.50 C234.80 209.50 227.40 201.75 226.60 201.65 C224.55 201.35 214.90 190.10 212.30 185 C211.60 183.65 219.95 192.50 222.05 195.30 C223.15 196.80 224.20 197.90 224.40 197.75 C225.10 197.35 236.60 209.35 236.20 210 C235.95 210.40 236.05 210.50 236.45 210.25 C237.10 209.85 238.95 211.25 239 212.20 C239 212.50 239.70 213.20 240.60 213.80 C245.40 217.05 250.30 220.50 250.95 221.10 C251.90 221.90 253.80 222.75 258.75 224.45 C268.30 227.80 267.65 227.65 277.50 227.75 C286.25 227.85 287 227.75 292.25 226.40 C298.65 224.70 307.95 221.60 308.85 220.85 C309.20 220.55 309.60 220.45 309.75 220.60 C310.55 221.40 297.05 227.50 294.55 227.50 C294.15 227.50 293.30 227.90 292.75 228.45 C291.25 229.85 284.95 231.40 278.60 231.95 C275.50 232.20 272.70 232.55 272.45 232.70 C271.40 233.30 266.30 233.45 263.60 233 M268.25 231.60 C268.15 231.40 268.70 231.20 269.50 231.10 C270.30 231.05 271.05 231.25 271.20 231.50 C271.35 231.75 270.80 232 270 232 C269.15 232 268.40 231.80 268.25 231.60 M258.60 229.45 C251.25 227.50 250.95 227.40 252.10 227.10 C252.60 227 253 226.70 253 226.45 C253 226.15 253.70 226.35 254.60 226.80 C256.55 227.80 260.75 228.95 262.50 228.95 C263.15 229 264.35 229.45 265.10 230 C266.30 230.85 266.35 231 265.50 231 C264.95 231 261.85 230.30 258.60 229.45 M269.20 229.50 C269.10 229.25 268.45 229.20 267.85 229.35 C267.25 229.50 266.85 229.45 267.05 229.25 C267.45 228.80 285 228.60 285 229.05 C285 229.25 285.45 229.25 286.05 229.10 C286.80 228.90 287.05 229 286.80 229.40 C286.40 230.10 269.60 230.20 269.20 229.50 M260.25 227.20 C259.80 227.05 259.50 226.70 259.50 226.40 C259.50 225.80 262.50 226.35 263.10 227.05 C263.50 227.50 261.40 227.65 260.25 227.20 M249 226.60 C249 226.35 249.65 225.95 250.50 225.65 C251.30 225.30 252 225.25 252 225.45 C252 225.70 251.55 226 251 226.15 C250.45 226.35 249.75 226.60 249.50 226.75 C249.20 226.85 249 226.80 249 226.60 M257.25 226.20 C256.80 226.05 256.50 225.70 256.50 225.50 C256.50 224.95 258.40 225.45 258.75 226.05 C259 226.55 258.30 226.60 257.25 226.20 M254.35 225.20 C252.15 224.20 251.50 223.75 251.50 223.40 C251.50 222.90 255.05 224.30 255.60 225 C256 225.55 255.30 225.65 254.35 225.20 M243.10 217.85 C238.75 214.95 237.70 214.25 236.15 213.45 C235.50 213.10 234.90 212.50 234.75 212.15 C234.60 211.75 235.30 212.05 236.25 212.75 C237.20 213.50 238 213.85 238 213.55 C238 213.20 239.20 213.95 240.65 215.15 C242.15 216.35 244.30 217.85 245.40 218.50 C246.55 219.15 247.50 219.85 247.50 220.05 C247.50 220.75 247.10 220.55 243.10 217.85 "/>
  <path d="M173.10 232.70 C170.75 232.35 169.55 231.20 166.20 226.25 C162.25 220.25 161.70 218.90 162.45 217 C163.40 214.70 165.65 213.65 172 212.55 C183.50 210.50 187.95 210.45 191.60 212.20 C192.50 212.65 195.65 215.35 198.65 218.20 C204 223.25 204.10 223.35 203.15 224.30 C202.60 224.85 200.75 225.50 198.70 225.90 C194.40 226.70 187.90 228.65 183.10 230.55 C178.40 232.40 175.40 233.05 173.10 232.70 "/>
  <path d="M249.85 231.05 C240.50 229 237.25 227.55 230 222.05 C227.45 220.15 226.50 219.20 227.05 219.10 C228.35 218.85 239.05 223.20 244.50 226.15 C247.10 227.55 250.50 229.30 252.10 230 C253.65 230.65 254.95 231.40 254.95 231.60 C255 232.15 254.45 232.10 249.85 231.05 "/>
  <path d="M227.35 226.20 C225.10 225.80 221 225.10 218.25 224.70 C215.55 224.25 212.50 223.50 211.50 223 C208.75 221.60 200.75 214.35 200.55 213.10 C200.35 211.65 201.45 211.55 206.60 212.55 C215.70 214.40 219.75 216.10 224.50 219.95 C225.70 221 228.10 222.80 229.85 223.95 C232.60 225.95 233.35 227 232 227 C231.70 227 229.60 226.65 227.35 226.20 "/>
  <path d="M110.75 220.60 C108.35 220.15 106.35 218.60 105.15 216.35 C104.65 215.40 104.40 212.55 104.20 207.10 C104.10 202.75 103.85 197.75 103.70 196 C103.35 191.95 104.35 189.75 107.15 188.30 C108.70 187.50 109.95 187.35 114.65 187.45 C117.70 187.45 123.85 187.55 128.25 187.60 C135.45 187.70 136.45 187.85 138.35 188.85 C139.50 189.50 140.80 190.50 141.25 191.15 C141.65 191.80 143 195.80 144.20 200 C146.25 207.05 146.35 207.80 145.75 209.30 C144.55 212.15 141.80 213.40 129.45 216.80 C115.20 220.75 113.55 221.05 110.75 220.60 "/>
  <path d="M228.85 218.10 C221.10 214.50 219.40 213.35 215 208.60 C211.45 204.75 210.25 203 211.30 203 C211.70 203 220.15 207.75 222.45 209.30 C224.35 210.55 231.25 216.35 233.80 218.85 C236.10 221.10 234.95 220.95 228.85 218.10 "/>
  <path d="M211.10 211.20 C209.80 210.80 206.05 209.80 202.75 208.95 C195.25 207 193.20 205.75 189.80 201 C185.85 195.45 185.35 194.55 185.65 193.75 C186.10 192.60 187.40 192.80 192.75 194.75 C201.95 198.05 203.55 199.10 209 205.15 C211.75 208.15 214 210.95 214 211.30 C214 212.15 214 212.15 211.10 211.20 "/>
  <path d="M158.50 207.50 C156 206.30 155.50 205.50 152.75 197.80 C150.55 191.70 150.45 191.30 151.25 190.15 C152.45 188.25 154.15 187.90 159.95 188.25 C170.50 188.85 176.30 190.30 178.55 192.80 C179 193.30 181 196.20 182.95 199.15 C186.45 204.45 186.50 204.65 185.65 205.50 C184.90 206.25 183.60 206.50 179.60 206.70 C176.80 206.85 172.95 207.20 171 207.50 C163.45 208.55 160.60 208.55 158.50 207.50 "/>
  <path d="M213.75 202.85 C210.60 200.85 207.10 198.35 205.95 197.25 C203.45 194.75 198.15 187.10 198.65 186.65 C199.60 185.70 210.65 193.90 213.95 198 C215.20 199.55 217.05 201.85 218.10 203.15 C219.15 204.40 219.85 205.70 219.75 206 C219.60 206.25 216.90 204.85 213.75 202.85 "/>
  <path d="M220.35 200.90 C214.85 196.40 212.40 193.80 209.40 189.30 C207.80 186.85 206.55 184.70 206.70 184.55 C207.35 183.95 217.05 193.75 220.55 198.55 C221.90 200.40 223.20 202.05 223.50 202.20 C223.75 202.35 223.85 202.70 223.75 203 C223.60 203.25 222.05 202.30 220.35 200.90 "/>
  <path d="M221.45 198.95 C221 198 221 197.95 221.95 198.45 C223 199.05 223.35 200 222.50 200 C222.20 200 221.75 199.50 221.45 198.95 "/>
  <path d="M195.35 193.20 C193.90 192.45 191 191.25 188.85 190.45 C181.80 187.80 180.60 186.70 177.05 179.60 C174.80 175.20 174.55 174.10 175.70 173.65 C176.75 173.25 188.75 179.40 191.30 181.65 C193.35 183.45 200 192.90 200 194 C200 194.85 198.05 194.50 195.35 193.20 "/>
  <path d="M201.35 186.05 C194.85 180.85 194.20 180.10 191.20 174.55 C187.80 168.10 188.15 167.95 194.35 173.15 C200.30 178.15 202.45 180.50 205.35 185.25 C208.65 190.60 208.60 190.50 207.75 190.50 C207.30 190.50 204.45 188.45 201.35 186.05 "/>
  <path d="M208.80 184.85 C206.20 182.30 203.30 179 202.35 177.50 C199.90 173.60 197.85 169.50 198.45 169.50 C199.45 169.50 208.35 180.05 210.90 184.25 C212.40 186.70 213.70 188.90 213.80 189.10 C214.25 190.10 213.10 189.10 208.80 184.85 "/>
  <path d="M168.85 185 C167.05 184.50 162.50 183.80 156 183 C152.85 182.60 151.15 182.10 149.50 181.10 C147.40 179.80 147.10 179.40 145.85 175.55 C145.10 173.25 144.20 170.05 143.90 168.45 C143.35 165.80 143.35 165.35 144.10 164.60 C145.35 163.40 147.40 163.60 155.35 165.90 C166.25 169.05 167.85 170.10 170.80 176.45 C173.35 181.85 173.95 183.75 173.45 184.40 C172.75 185.25 170.70 185.55 168.85 185 "/>
  <path d="M122.10 181 C120.25 180.75 116.65 180.45 114.10 180.30 C110.35 180.10 109.05 179.80 107 178.70 C105.60 177.90 104.05 176.60 103.55 175.75 C102.55 174.10 100.60 160.45 101.25 159.45 C102.35 157.65 106.60 157.10 113.10 157.95 C115.10 158.25 119.45 158.80 122.75 159.25 C129.70 160.20 133.50 161.65 134.85 163.90 C135.35 164.75 136.45 168.40 137.20 172 L138.65 178.55 137.30 179.75 C136.10 180.85 135.40 181 130.75 181.25 C127.85 181.35 123.95 181.25 122.10 181 "/>
  <path d="M185.85 175.50 C184.40 174.65 181.45 173.05 179.25 171.90 C172.80 168.60 171.45 167.25 169.05 161.70 C166.55 155.90 166.40 154.75 168.30 155.20 C170.05 155.65 179.05 161.25 181.75 163.60 C183.55 165.20 187.15 171 189.10 175.60 C189.75 177.10 188.60 177.05 185.85 175.50 "/>
  <path d="M195.80 172.85 C194.60 171.70 191.95 169.20 189.80 167.35 C186.45 164.35 185.70 163.35 183.75 159.20 C182.50 156.65 181.50 154.25 181.50 153.95 C181.50 152.85 184.65 155.35 189.40 160.20 C193.35 164.25 194.75 166.10 196.65 169.80 C197.90 172.30 199 174.50 199 174.70 C199 175.45 197.75 174.75 195.80 172.85 "/>
  <path d="M157.10 162.70 C154.15 161.70 150.55 160.55 149.10 160.20 C145.75 159.30 143.05 157.95 141.45 156.30 C140.05 154.90 137.10 145.60 137.65 144.25 C138.15 142.95 141 143.35 147.30 145.50 C158.75 149.45 160.30 150.65 162.95 157.55 C165.75 164.85 165.15 165.35 157.10 162.70 "/>
  <path d="M172.55 155 C168.45 152.25 164.70 149.35 164.15 148.60 C163 146.90 160.50 140.55 160.50 139.35 C160.45 137.80 161.80 138.40 167.95 142.50 C175.10 147.35 176.50 148.85 179.05 154.35 C181 158.70 181.35 160 180.50 160 C180.20 160 176.65 157.75 172.55 155 "/>
  <path d="M125.85 155.25 C125.65 154.95 118.25 153.95 114 153.65 C108.60 153.25 102.45 152.05 100.80 151.10 C99.50 150.35 99 149.50 97.90 146.20 C96.60 142.25 96.60 142.20 97.60 141.35 C99.55 139.65 102.40 139.25 112.50 139.25 C127.40 139.30 129.45 140.25 131.40 147.85 C132.80 153.35 132.80 154.40 131.25 155 C129.95 155.50 126.10 155.65 125.85 155.25 "/>
  <path d="M152.60 144.45 C150.45 143.60 146.50 142.15 143.80 141.20 C138.40 139.35 135.75 137.90 134.90 136.35 C134.60 135.80 133.85 133.80 133.20 131.90 C132.20 129 132.15 128.40 132.75 128.20 C133.15 128.10 133.80 127.85 134.25 127.75 C135.30 127.40 141.10 129.05 147 131.30 C153 133.65 154.80 135.30 156.70 140.60 C158 144.30 158.10 146 157 146 C156.70 146 154.75 145.30 152.60 144.45 "/>
  <path d="M94.30 137.10 C93.45 136.65 90.80 133.50 91.05 133.25 C92.05 132.35 99.05 129.40 102.25 128.55 C114.50 125.30 123.55 125.25 125.20 128.40 C126.70 131.40 127.60 135.05 127 135.65 C126.60 136.05 123 136.25 115.30 136.30 C109.20 136.35 103.60 136.50 102.85 136.70 C100.35 137.20 95 137.50 94.30 137.10 "/>
  <path d="M399 81.50 L399.50 81.75C399.75 81.90 400 82.45 400 83 C400 83.55 400 84.10 400 84.25 L400 84.50L400 84.50 L399.50 83L399 81.50"/>
  <path d="M27.50 33.25 L27.55 33.05 L27.50 33 L27.50 32.75C27.50 32.60 27.60 32.50 27.75 32.50 L28 32.50L28 32.50 L28 32.25C28 32.10 28.10 32 28.25 32 L28.50 32L28.50 32 L28.50 31.75C28.50 31.60 28.60 31.50 28.75 31.50 L29 31.50L29 31.50 L29 31.25C29 31.10 29.10 31 29.25 31 L29.50 31L29.50 31 L29.50 30.75C29.50 30.60 29.60 30.50 29.75 30.50 L30 30.50L30 30.50 L30 30.25C30 30.10 30.10 30 30.25 30 L30.50 30L30.50 30 L30.50 29.75C30.50 29.60 30.60 29.50 30.75 29.50 L31 29.50L31 29.50 L31 29.25C31 29.10 31.10 29 31.25 29 L31.50 29L31.50 29 L31.50 28.75C31.50 28.60 31.60 28.50 31.75 28.50 L32 28.50L32 28.50 L32 28.25C32 28.10 32.10 28 32.25 28 L32.50 28L32.50 28 L32.50 27.75C32.50 27.60 32.60 27.50 32.75 27.50 L33 27.50L33.05 27.55 33.25 27.25 L33.50 27 L31.20 29.35C29.95 30.65 28.80 31.90 28.65 32.10 C28.55 32.30 28.35 32.50 28.30 32.50 C28.25 32.50 27.90 32.70 27.60 33 L27 33.50"/>
  <path d="M369.25 27.75 L369.40 28.05 L369.50 28 L369.75 28C369.85 28 370 28.10 370 28.25 L370 28.50L370 28.50 L370.25 28.50C370.35 28.50 370.50 28.60 370.50 28.75 L370.50 29L370.50 29 L370.75 29C370.85 29 371 29.10 371 29.25 L371 29.50L371 29.50 L371.25 29.50C371.35 29.50 371.50 29.60 371.50 29.75 L371.50 30L371.50 30 L371.75 30C371.85 30 372 30.10 372 30.25 L372 30.50L372 30.50 L372.25 30.50C372.35 30.50 372.50 30.60 372.50 30.75 L372.50 31L372.50 31 L372.75 31C372.85 31 373 31.10 373 31.25 L373 31.50L373 31.50 L373.25 31.50C373.35 31.50 373.50 31.60 373.50 31.75 L373.50 32L373.50 32 L373.75 32C373.85 32 374 32.10 374 32.25 L374 32.50L374 32.50 L374.25 32.50C374.35 32.50 374.50 32.60 374.50 32.75 L374.50 33L374.50 33.05 374.75 33.25 L375 33.50 L374.50 33.20C374.20 33.05 374 32.85 374 32.80 C374 32.75 372.85 31.55 371.50 30.10 L369 27.50"/>
  <path d="M91.50 1.50 L93.85 1.20C95.15 1.05 96.40 0.95 96.60 0.95 L97 1L97 1 L96.80 1.25C96.70 1.35 96.50 1.50 96.30 1.50 C96.10 1.50 94.95 1.50 93.75 1.50 L91.50 1.50"/>
 </g>
 <g fill="#393132" fill-rule="evenodd">
  <path d="M81.50 399 L81.10 399C80.90 399 77.80 398.20 74.25 397.20 C70.65 396.25 65.30 394.45 62.30 393.25 C59.35 392.05 54.45 389.65 51.50 387.95 C48.55 386.25 44.05 383.30 41.45 381.40 C38.85 379.50 36 377.25 35.10 376.45 L33.50 375L33.50 375 L33 374.40C32.70 374.05 32.50 373.70 32.50 373.65 C32.50 373.60 32.30 373.40 32.10 373.30 C31.90 373.15 30.65 372 29.35 370.75 L27 368.50L27 368.50 L26.95 368.35C26.95 368.30 25.05 365.85 22.70 363 C20.40 360.10 17.15 355.50 15.50 352.75 C13.85 350 11.40 345.35 10.05 342.50 C8.65 339.60 6.75 334.85 5.80 331.90 C4.80 329 3.55 324.35 3 321.65 C2.45 318.95 1.80 314.80 1.50 312.50 C1.15 309.65 0.95 273.15 0.95 202.40 C0.95 131.45 1.15 94.90 1.50 91.40 C1.80 88.55 2.50 83.90 3 81.10 C3.55 78.30 4.90 73.20 6 69.85 C7.15 66.50 9.20 61.25 10.60 58.25 C12 55.20 14.50 50.60 16.10 48.05 C17.70 45.45 20 42.05 21.20 40.55 C22.40 39 24.15 36.85 25.15 35.75 C26.15 34.65 26.95 33.65 26.95 33.60 L27 33.50L27 33.50 L27.60 33C27.90 32.70 28.25 32.50 28.30 32.50 C28.35 32.50 28.55 32.30 28.65 32.10 C28.80 31.90 29.95 30.65 31.20 29.35 L33.50 27L33.50 27 L33.70 26.85C33.85 26.75 35.35 25.55 37.10 24.15 C38.80 22.75 41.45 20.70 43 19.60 C44.50 18.45 48.35 16 51.50 14.10 C54.70 12.25 59.70 9.75 62.55 8.60 C65.45 7.45 70.65 5.70 74.15 4.75 C77.60 3.80 82.05 2.80 84.10 2.50 C86.10 2.20 88.55 1.85 89.60 1.75 L91.50 1.50L91.50 1.50 L93.75 1.50C94.95 1.50 96.10 1.50 96.30 1.50 C96.50 1.50 96.70 1.35 96.80 1.25 L97 1L97 1 L203.10 1C306.15 1 309.40 1 315.50 1.95 C318.90 2.50 324.30 3.65 327.40 4.45 C330.55 5.30 335.15 6.80 337.65 7.75 C340.15 8.75 344.15 10.60 346.50 11.85 C348.80 13.10 352.85 15.50 355.50 17.25 C358.10 19 362.05 21.85 364.25 23.65 C366.45 25.40 368.40 27 368.60 27.15 L369 27.50L369 27.50 L371.50 30.10C372.85 31.55 374 32.75 374 32.80 C374 32.85 374.20 33.05 374.50 33.20 L375 33.50L375 33.50 L379.10 38.60C381.40 41.40 384.40 45.65 385.80 48 C387.20 50.30 389.30 54.10 390.45 56.45 C391.65 58.75 393.35 62.70 394.30 65.15 C395.25 67.60 396.65 72.15 397.50 75.20 C398.30 78.25 399 80.95 399 81.10 L399 81.50L399 81.50 L399.50 83L400 84.50L400 84.50 L400 200.50C400 315.35 399.95 316.60 398.95 321.55 C398.40 324.35 397.15 329 396.15 331.90 C395.20 334.85 393.10 339.95 391.55 343.25 C389.95 346.55 387.40 351.25 385.85 353.75 C384.30 356.20 381.25 360.50 379 363.25 C376.80 366.05 374.90 368.45 374.75 368.65 L374.50 369L374.50 369 L372.10 371.25C370.80 372.45 369.70 373.50 369.65 373.50 C369.60 373.50 369.40 373.70 369.25 374 L369 374.50L369 374.50 L366.85 376.40C365.70 377.45 363.05 379.55 361 381.10 C358.90 382.60 355.40 385 353.20 386.35 C351 387.75 347.50 389.70 345.45 390.75 C343.40 391.75 339.70 393.40 337.25 394.35 C334.75 395.30 329.80 396.90 326.25 397.90 L319.75 399.70 205 399.85 C141.85 399.90 89.05 400 87.60 400 L85 400L85 400 L83.25 399.50L81.50 399M108.50 275 C106.65 273.15 106.45 271.65 105.70 250.20 C105.35 241.85 105.40 241 106.35 238.90 C108.35 234.40 112.90 230.80 120.90 227.50 C126.05 225.40 143.45 219.60 145.90 219.20 C149.35 218.65 150.30 219.45 153.15 225.50 C154.50 228.35 156.50 232.25 157.55 234.10 C159.40 237.30 159.50 237.60 158.95 239.55 C158.20 242.30 154.95 245.70 148.80 250.10 C142.35 254.65 137.30 258.50 126.75 266.95 C117.50 274.30 115.80 275.35 112 275.75 C109.95 275.95 109.30 275.80 108.50 275 M263.60 233 C257.55 231.95 247.25 227.65 247.75 226.35 C247.95 225.85 247.15 225.30 245 224.50 C243.35 223.90 240.55 222.45 238.80 221.30 C235.35 219 229.85 214.40 230.20 214.10 C230.50 213.80 237.30 217.45 243.50 221.25 C247.45 223.60 247.85 223.75 248.35 222.95 C248.75 222.30 248.75 222.10 248.30 222.15 C247.30 222.25 241.10 218.95 239 217.10 C237.85 216.15 236.65 215.50 236.20 215.65 C234.80 216.20 226.90 210.95 222.75 206.65 C218.90 202.75 215.95 198.80 217.55 199.75 C219.80 201.05 228.90 208.55 231.80 211.50 C233.70 213.40 235.45 214.95 235.70 214.95 C235.95 214.95 235.45 214.25 234.55 213.35 C233.70 212.40 232.95 211.45 232.95 211.20 C232.95 210.95 231.55 209.50 229.85 208 C226.55 205.10 222.70 200.60 223.15 200.10 C223.50 199.80 228.15 203.80 231.45 207.20 C232.70 208.45 233.90 209.50 234.15 209.50 C234.80 209.50 227.40 201.75 226.60 201.65 C224.55 201.35 214.90 190.10 212.30 185 C211.60 183.65 219.95 192.50 222.05 195.30 C223.15 196.80 224.20 197.90 224.40 197.75 C225.10 197.35 236.60 209.35 236.20 210 C235.95 210.40 236.05 210.50 236.45 210.25 C237.10 209.85 238.95 211.25 239 212.20 C239 212.50 239.70 213.20 240.60 213.80 C245.40 217.05 250.30 220.50 250.95 221.10 C251.90 221.90 253.80 222.75 258.75 224.45 C268.30 227.80 267.65 227.65 277.50 227.75 C286.25 227.85 287 227.75 292.25 226.40 C298.65 224.70 307.95 221.60 308.85 220.85 C309.20 220.55 309.60 220.45 309.75 220.60 C310.55 221.40 297.05 227.50 294.55 227.50 C294.15 227.50 293.30 227.90 292.75 228.45 C291.25 229.85 284.95 231.40 278.60 231.95 C275.50 232.20 272.70 232.55 272.45 232.70 C271.40 233.30 266.30 233.45 263.60 233 M268.25 231.60 C268.15 231.40 268.70 231.20 269.50 231.10 C270.30 231.05 271.05 231.25 271.20 231.50 C271.35 231.75 270.80 232 270 232 C269.15 232 268.40 231.80 268.25 231.60 M258.60 229.45 C251.25 227.50 250.95 227.40 252.10 227.10 C252.60 227 253 226.70 253 226.45 C253 226.15 253.70 226.35 254.60 226.80 C256.55 227.80 260.75 228.95 262.50 228.95 C263.15 229 264.35 229.45 265.10 230 C266.30 230.85 266.35 231 265.50 231 C264.95 231 261.85 230.30 258.60 229.45 M269.20 229.50 C269.10 229.25 268.45 229.20 267.85 229.35 C267.25 229.50 266.85 229.45 267.05 229.25 C267.45 228.80 285 228.60 285 229.05 C285 229.25 285.45 229.25 286.05 229.10 C286.80 228.90 287.05 229 286.80 229.40 C286.40 230.10 269.60 230.20 269.20 229.50 M260.25 227.20 C259.80 227.05 259.50 226.70 259.50 226.40 C259.50 225.80 262.50 226.35 263.10 227.05 C263.50 227.50 261.40 227.65 260.25 227.20 M249 226.60 C249 226.35 249.65 225.95 250.50 225.65 C251.30 225.30 252 225.25 252 225.45 C252 225.70 251.55 226 251 226.15 C250.45 226.35 249.75 226.60 249.50 226.75 C249.20 226.85 249 226.80 249 226.60 M257.25 226.20 C256.80 226.05 256.50 225.70 256.50 225.50 C256.50 224.95 258.40 225.45 258.75 226.05 C259 226.55 258.30 226.60 257.25 226.20 M254.35 225.20 C252.15 224.20 251.50 223.75 251.50 223.40 C251.50 222.90 255.05 224.30 255.60 225 C256 225.55 255.30 225.65 254.35 225.20 M243.10 217.85 C238.75 214.95 237.70 214.25 236.15 213.45 C235.50 213.10 234.90 212.50 234.75 212.15 C234.60 211.75 235.30 212.05 236.25 212.75 C237.20 213.50 238 213.85 238 213.55 C238 213.20 239.20 213.95 240.65 215.15 C242.15 216.35 244.30 217.85 245.40 218.50 C246.55 219.15 247.50 219.85 247.50 220.05 C247.50 220.75 247.10 220.55 243.10 217.85 M173.10 232.70 C170.75 232.35 169.55 231.20 166.20 226.25 C162.25 220.25 161.70 218.90 162.45 217 C163.40 214.70 165.65 213.65 172 212.55 C183.50 210.50 187.95 210.45 191.60 212.20 C192.50 212.65 195.65 215.35 198.65 218.20 C204 223.25 204.10 223.35 203.15 224.30 C202.60 224.85 200.75 225.50 198.70 225.90 C194.40 226.70 187.90 228.65 183.10 230.55 C178.40 232.40 175.40 233.05 173.10 232.70 M249.85 231.05 C240.50 229 237.25 227.55 230 222.05 C227.45 220.15 226.50 219.20 227.05 219.10 C228.35 218.85 239.05 223.20 244.50 226.15 C247.10 227.55 250.50 229.30 252.10 230 C253.65 230.65 254.95 231.40 254.95 231.60 C255 232.15 254.45 232.10 249.85 231.05 M227.35 226.20 C225.10 225.80 221 225.10 218.25 224.70 C215.55 224.25 212.50 223.50 211.50 223 C208.75 221.60 200.75 214.35 200.55 213.10 C200.35 211.65 201.45 211.55 206.60 212.55 C215.70 214.40 219.75 216.10 224.50 219.95 C225.70 221 228.10 222.80 229.85 223.95 C232.60 225.95 233.35 227 232 227 C231.70 227 229.60 226.65 227.35 226.20 M110.75 220.60 C108.35 220.15 106.35 218.60 105.15 216.35 C104.65 215.40 104.40 212.55 104.20 207.10 C104.10 202.75 103.85 197.75 103.70 196 C103.35 191.95 104.35 189.75 107.15 188.30 C108.70 187.50 109.95 187.35 114.65 187.45 C117.70 187.45 123.85 187.55 128.25 187.60 C135.45 187.70 136.45 187.85 138.35 188.85 C139.50 189.50 140.80 190.50 141.25 191.15 C141.65 191.80 143 195.80 144.20 200 C146.25 207.05 146.35 207.80 145.75 209.30 C144.55 212.15 141.80 213.40 129.45 216.80 C115.20 220.75 113.55 221.05 110.75 220.60 M228.85 218.10 C221.10 214.50 219.40 213.35 215 208.60 C211.45 204.75 210.25 203 211.30 203 C211.70 203 220.15 207.75 222.45 209.30 C224.35 210.55 231.25 216.35 233.80 218.85 C236.10 221.10 234.95 220.95 228.85 218.10 M211.10 211.20 C209.80 210.80 206.05 209.80 202.75 208.95 C195.25 207 193.20 205.75 189.80 201 C185.85 195.45 185.35 194.55 185.65 193.75 C186.10 192.60 187.40 192.80 192.75 194.75 C201.95 198.05 203.55 199.10 209 205.15 C211.75 208.15 214 210.95 214 211.30 C214 212.15 214 212.15 211.10 211.20 M158.50 207.50 C156 206.30 155.50 205.50 152.75 197.80 C150.55 191.70 150.45 191.30 151.25 190.15 C152.45 188.25 154.15 187.90 159.95 188.25 C170.50 188.85 176.30 190.30 178.55 192.80 C179 193.30 181 196.20 182.95 199.15 C186.45 204.45 186.50 204.65 185.65 205.50 C184.90 206.25 183.60 206.50 179.60 206.70 C176.80 206.85 172.95 207.20 171 207.50 C163.45 208.55 160.60 208.55 158.50 207.50 M213.75 202.85 C210.60 200.85 207.10 198.35 205.95 197.25 C203.45 194.75 198.15 187.10 198.65 186.65 C199.60 185.70 210.65 193.90 213.95 198 C215.20 199.55 217.05 201.85 218.10 203.15 C219.15 204.40 219.85 205.70 219.75 206 C219.60 206.25 216.90 204.85 213.75 202.85 M220.35 200.90 C214.85 196.40 212.40 193.80 209.40 189.30 C207.80 186.85 206.55 184.70 206.70 184.55 C207.35 183.95 217.05 193.75 220.55 198.55 C221.90 200.40 223.20 202.05 223.50 202.20 C223.75 202.35 223.85 202.70 223.75 203 C223.60 203.25 222.05 202.30 220.35 200.90 M221.45 198.95 C221 198 221 197.95 221.95 198.45 C223 199.05 223.35 200 222.50 200 C222.20 200 221.75 199.50 221.45 198.95 M195.35 193.20 C193.90 192.45 191 191.25 188.85 190.45 C181.80 187.80 180.60 186.70 177.05 179.60 C174.80 175.20 174.55 174.10 175.70 173.65 C176.75 173.25 188.75 179.40 191.30 181.65 C193.35 183.45 200 192.90 200 194 C200 194.85 198.05 194.50 195.35 193.20 M201.35 186.05 C194.85 180.85 194.20 180.10 191.20 174.55 C187.80 168.10 188.15 167.95 194.35 173.15 C200.30 178.15 202.45 180.50 205.35 185.25 C208.65 190.60 208.60 190.50 207.75 190.50 C207.30 190.50 204.45 188.45 201.35 186.05 M208.80 184.85 C206.20 182.30 203.30 179 202.35 177.50 C199.90 173.60 197.85 169.50 198.45 169.50 C199.45 169.50 208.35 180.05 210.90 184.25 C212.40 186.70 213.70 188.90 213.80 189.10 C214.25 190.10 213.10 189.10 208.80 184.85 M168.85 185 C167.05 184.50 162.50 183.80 156 183 C152.85 182.60 151.15 182.10 149.50 181.10 C147.40 179.80 147.10 179.40 145.85 175.55 C145.10 173.25 144.20 170.05 143.90 168.45 C143.35 165.80 143.35 165.35 144.10 164.60 C145.35 163.40 147.40 163.60 155.35 165.90 C166.25 169.05 167.85 170.10 170.80 176.45 C173.35 181.85 173.95 183.75 173.45 184.40 C172.75 185.25 170.70 185.55 168.85 185 M122.10 181 C120.25 180.75 116.65 180.45 114.10 180.30 C110.35 180.10 109.05 179.80 107 178.70 C105.60 177.90 104.05 176.60 103.55 175.75 C102.55 174.10 100.60 160.45 101.25 159.45 C102.35 157.65 106.60 157.10 113.10 157.95 C115.10 158.25 119.45 158.80 122.75 159.25 C129.70 160.20 133.50 161.65 134.85 163.90 C135.35 164.75 136.45 168.40 137.20 172 L138.65 178.55 137.30 179.75 C136.10 180.85 135.40 181 130.75 181.25 C127.85 181.35 123.95 181.25 122.10 181 M185.85 175.50 C184.40 174.65 181.45 173.05 179.25 171.90 C172.80 168.60 171.45 167.25 169.05 161.70 C166.55 155.90 166.40 154.75 168.30 155.20 C170.05 155.65 179.05 161.25 181.75 163.60 C183.55 165.20 187.15 171 189.10 175.60 C189.75 177.10 188.60 177.05 185.85 175.50 M195.80 172.85 C194.60 171.70 191.95 169.20 189.80 167.35 C186.45 164.35 185.70 163.35 183.75 159.20 C182.50 156.65 181.50 154.25 181.50 153.95 C181.50 152.85 184.65 155.35 189.40 160.20 C193.35 164.25 194.75 166.10 196.65 169.80 C197.90 172.30 199 174.50 199 174.70 C199 175.45 197.75 174.75 195.80 172.85 M157.10 162.70 C154.15 161.70 150.55 160.55 149.10 160.20 C145.75 159.30 143.05 157.95 141.45 156.30 C140.05 154.90 137.10 145.60 137.65 144.25 C138.15 142.95 141 143.35 147.30 145.50 C158.75 149.45 160.30 150.65 162.95 157.55 C165.75 164.85 165.15 165.35 157.10 162.70 M172.55 155 C168.45 152.25 164.70 149.35 164.15 148.60 C163 146.90 160.50 140.55 160.50 139.35 C160.45 137.80 161.80 138.40 167.95 142.50 C175.10 147.35 176.50 148.85 179.05 154.35 C181 158.70 181.35 160 180.50 160 C180.20 160 176.65 157.75 172.55 155 M125.85 155.25 C125.65 154.95 118.25 153.95 114 153.65 C108.60 153.25 102.45 152.05 100.80 151.10 C99.50 150.35 99 149.50 97.90 146.20 C96.60 142.25 96.60 142.20 97.60 141.35 C99.55 139.65 102.40 139.25 112.50 139.25 C127.40 139.30 129.45 140.25 131.40 147.85 C132.80 153.35 132.80 154.40 131.25 155 C129.95 155.50 126.10 155.65 125.85 155.25 M152.60 144.45 C150.45 143.60 146.50 142.15 143.80 141.20 C138.40 139.35 135.75 137.90 134.90 136.35 C134.60 135.80 133.85 133.80 133.20 131.90 C132.20 129 132.15 128.40 132.75 128.20 C133.15 128.10 133.80 127.85 134.25 127.75 C135.30 127.40 141.10 129.05 147 131.30 C153 133.65 154.80 135.30 156.70 140.60 C158 144.30 158.10 146 157 146 C156.70 146 154.75 145.30 152.60 144.45 M94.30 137.10 C93.45 136.65 90.80 133.50 91.05 133.25 C92.05 132.35 99.05 129.40 102.25 128.55 C114.50 125.30 123.55 125.25 125.20 128.40 C126.70 131.40 127.60 135.05 127 135.65 C126.60 136.05 123 136.25 115.30 136.30 C109.20 136.35 103.60 136.50 102.85 136.70 C100.35 137.20 95 137.50 94.30 137.10 "/>
 </g>
</svg>